%TF.GenerationSoftware,KiCad,Pcbnew,(5.0.2)-1*%
%TF.CreationDate,2019-03-08T17:26:47-06:00*%
%TF.ProjectId,IoT IPRO (plant pot),496f5420-4950-4524-9f20-28706c616e74,rev?*%
%TF.SameCoordinates,Original*%
%TF.FileFunction,Copper,L1,Top*%
%TF.FilePolarity,Positive*%
%FSLAX46Y46*%
G04 Gerber Fmt 4.6, Leading zero omitted, Abs format (unit mm)*
G04 Created by KiCad (PCBNEW (5.0.2)-1) date 3/8/2019 5:26:47 PM*
%MOMM*%
%LPD*%
G01*
G04 APERTURE LIST*
%ADD10C,1.600000*%
%ADD11O,1.600000X1.600000*%
%ADD12C,1.524000*%
%ADD13R,1.550000X0.600000*%
%ADD14C,2.500000*%
%ADD15R,1.200000X1.750000*%
%ADD16O,1.200000X1.750000*%
%ADD17C,1.900000*%
%ADD18C,2.000000*%
%ADD19R,1.700000X1.700000*%
%ADD20O,1.700000X1.700000*%
%ADD21R,1.050000X1.500000*%
%ADD22O,1.050000X1.500000*%
%ADD23R,1.560000X0.650000*%
%ADD24C,0.800000*%
%ADD25C,0.800000*%
%ADD26C,0.250000*%
G04 APERTURE END LIST*
D10*
X77500000Y-39500000D03*
D11*
X77500000Y-36960000D03*
D10*
X89250000Y-61750000D03*
D11*
X89250000Y-64290000D03*
D12*
X73500000Y-44000000D03*
X64500000Y-62000000D03*
X62500000Y-62000000D03*
X73500000Y-62000000D03*
X75500000Y-62000000D03*
X62500000Y-44000000D03*
X64500000Y-44000000D03*
X75500000Y-44000000D03*
D13*
X74700000Y-40405000D03*
X74700000Y-39135000D03*
X74700000Y-37865000D03*
X74700000Y-36595000D03*
X69300000Y-36595000D03*
X69300000Y-37865000D03*
X69300000Y-39135000D03*
X69300000Y-40405000D03*
D10*
X85750000Y-39500000D03*
X85750000Y-37000000D03*
D14*
X82750000Y-45500000D03*
X82750000Y-60500000D03*
D15*
X63000000Y-38000000D03*
D16*
X65000000Y-38000000D03*
D10*
X115000000Y-35000000D03*
D11*
X104840000Y-35000000D03*
D17*
X122190000Y-58890000D03*
X119650000Y-58890000D03*
X117110000Y-58890000D03*
X114570000Y-58890000D03*
X112030000Y-58890000D03*
X109490000Y-58890000D03*
X106950000Y-58890000D03*
X104410000Y-58890000D03*
X101870000Y-58890000D03*
X99330000Y-58890000D03*
X96790000Y-58890000D03*
X94250000Y-58890000D03*
X94250000Y-38570000D03*
X96790000Y-38570000D03*
X99330000Y-38570000D03*
X101870000Y-38570000D03*
X104410000Y-38570000D03*
X106950000Y-38570000D03*
X109490000Y-38570000D03*
X112030000Y-38570000D03*
X114570000Y-38570000D03*
X117110000Y-38570000D03*
X119650000Y-38570000D03*
X122190000Y-38570000D03*
X124730000Y-38570000D03*
X127270000Y-38570000D03*
X129810000Y-38570000D03*
X132350000Y-38570000D03*
D18*
X134740000Y-76000000D03*
X62520000Y-76000000D03*
D19*
X101000000Y-63240000D03*
D20*
X98460000Y-63240000D03*
X95920000Y-63240000D03*
X93380000Y-63240000D03*
D19*
X101000000Y-35000000D03*
D20*
X98460000Y-35000000D03*
D11*
X111840000Y-63240000D03*
D10*
X122000000Y-63240000D03*
D21*
X106000000Y-63240000D03*
D22*
X108540000Y-63240000D03*
X107270000Y-63240000D03*
D23*
X80150000Y-37300000D03*
X80150000Y-38250000D03*
X80150000Y-39200000D03*
X82850000Y-39200000D03*
X82850000Y-37300000D03*
X82850000Y-38250000D03*
D24*
X73000000Y-38250000D03*
D25*
X73500000Y-62000000D02*
X75500000Y-62000000D01*
X73385000Y-37865000D02*
X74700000Y-37865000D01*
X73000000Y-38250000D02*
X73385000Y-37865000D01*
D26*
X112030000Y-37970000D02*
X112030000Y-38570000D01*
X115000000Y-35000000D02*
X112030000Y-37970000D01*
X105920000Y-35000000D02*
X104840000Y-35000000D01*
X109490000Y-38570000D02*
X105920000Y-35000000D01*
X104840000Y-35000000D02*
X101000000Y-35000000D01*
X108540001Y-59839999D02*
X109490000Y-58890000D01*
X108540000Y-63240000D02*
X108540001Y-59839999D01*
X110439999Y-59839999D02*
X109490000Y-58890000D01*
X112714999Y-62114999D02*
X110439999Y-59839999D01*
X120874999Y-62114999D02*
X112714999Y-62114999D01*
X122000000Y-63240000D02*
X120874999Y-62114999D01*
X107270000Y-59210000D02*
X106950000Y-58890000D01*
X107270000Y-63240000D02*
X107270000Y-59210000D01*
X107270000Y-63465000D02*
X107270000Y-63240000D01*
X108120010Y-64315010D02*
X107270000Y-63465000D01*
X109967095Y-63240000D02*
X108892085Y-64315010D01*
X108892085Y-64315010D02*
X108120010Y-64315010D01*
X111840000Y-63240000D02*
X109967095Y-63240000D01*
X106000000Y-60480000D02*
X104410000Y-58890000D01*
X106000000Y-63240000D02*
X106000000Y-60480000D01*
X101000000Y-59760000D02*
X101870000Y-58890000D01*
X101000000Y-63240000D02*
X101000000Y-59760000D01*
X98460000Y-59760000D02*
X99330000Y-58890000D01*
X98460000Y-63240000D02*
X98460000Y-59760000D01*
X93380000Y-62300000D02*
X93380000Y-63240000D01*
X96790000Y-58890000D02*
X93380000Y-62300000D01*
X92204999Y-63804001D02*
X93400998Y-65000000D01*
X94250000Y-58890000D02*
X92204999Y-60935001D01*
X92204999Y-60935001D02*
X92204999Y-63804001D01*
X94160000Y-65000000D02*
X95920000Y-63240000D01*
X93400998Y-65000000D02*
X94160000Y-65000000D01*
X85750000Y-58250000D02*
X89250000Y-61750000D01*
X85750000Y-39500000D02*
X85750000Y-58250000D01*
X84500000Y-38250000D02*
X82850000Y-38250000D01*
X85750000Y-39500000D02*
X84500000Y-38250000D01*
D25*
X134740000Y-71440000D02*
X122190000Y-58890000D01*
X134740000Y-76000000D02*
X134740000Y-71440000D01*
D26*
X75175000Y-39135000D02*
X74700000Y-39135000D01*
X75900010Y-40201422D02*
X75900010Y-39860010D01*
X76898597Y-41200009D02*
X75900010Y-40201422D01*
X79839992Y-41200010D02*
X76898597Y-41200009D01*
X81255001Y-39785001D02*
X79839992Y-41200010D01*
X81255001Y-37375001D02*
X81255001Y-39785001D01*
X75900010Y-39860010D02*
X75175000Y-39135000D01*
X81180000Y-37300000D02*
X81255001Y-37375001D01*
X80150000Y-37300000D02*
X81180000Y-37300000D01*
X76374999Y-40040001D02*
X77084998Y-40750000D01*
X76374999Y-37244999D02*
X76374999Y-40040001D01*
X74700000Y-36595000D02*
X75725000Y-36595000D01*
X75725000Y-36595000D02*
X76374999Y-37244999D01*
X79695000Y-39200000D02*
X80150000Y-39200000D01*
X78145000Y-40750000D02*
X79695000Y-39200000D01*
X77084998Y-40750000D02*
X78145000Y-40750000D01*
D25*
X78750000Y-38250000D02*
X80150000Y-38250000D01*
X77500000Y-39500000D02*
X78750000Y-38250000D01*
X69300000Y-36595000D02*
X69300000Y-40405000D01*
X73500000Y-44000000D02*
X75500000Y-44000000D01*
X72422370Y-44000000D02*
X73500000Y-44000000D01*
X70725000Y-44000000D02*
X72422370Y-44000000D01*
X65000000Y-38275000D02*
X70725000Y-44000000D01*
X65000000Y-38000000D02*
X65000000Y-38275000D01*
X64500000Y-62000000D02*
X62500000Y-62000000D01*
X118059999Y-59839999D02*
X117110000Y-58890000D01*
X118660001Y-60440001D02*
X118059999Y-59839999D01*
X121272003Y-60440001D02*
X118660001Y-60440001D01*
X123400001Y-62567999D02*
X121272003Y-60440001D01*
X123400001Y-63912001D02*
X123400001Y-62567999D01*
X121586992Y-65725010D02*
X123400001Y-63912001D01*
X69302640Y-65725010D02*
X121586992Y-65725010D01*
X65577630Y-62000000D02*
X69302640Y-65725010D01*
X64500000Y-62000000D02*
X65577630Y-62000000D01*
X64500000Y-44000000D02*
X62500000Y-44000000D01*
X63000000Y-43500000D02*
X62500000Y-44000000D01*
X63000000Y-38000000D02*
X63000000Y-43500000D01*
X84950001Y-36200001D02*
X85750000Y-37000000D01*
X73125000Y-40405000D02*
X71999999Y-39279999D01*
X71999999Y-39279999D02*
X71999999Y-37139999D01*
X71999999Y-37139999D02*
X74079999Y-35059999D01*
X74079999Y-35059999D02*
X83809999Y-35059999D01*
X74700000Y-40405000D02*
X73125000Y-40405000D01*
X83809999Y-35059999D02*
X84950001Y-36200001D01*
X85450000Y-37300000D02*
X85750000Y-37000000D01*
X82850000Y-37300000D02*
X85450000Y-37300000D01*
X74700000Y-40405000D02*
X75175000Y-40405000D01*
X80982234Y-45500000D02*
X82750000Y-45500000D01*
X74700000Y-40405000D02*
X79795000Y-45500000D01*
X79795000Y-45500000D02*
X80982234Y-45500000D01*
M02*
