M48
;DRILL file {KiCad (5.0.2)-1} date 3/8/2019 5:27:22 PM
;FORMAT={-:-/ absolute / inch / decimal}
FMAT,2
INCH,TZ
T1C0.0157
T2C0.0295
T3C0.0315
T4C0.0394
T5C0.0400
T6C0.0402
T7C0.0520
T8C0.0591
%
G90
G05
T1
X2.874Y-1.5059
T2
X4.1732Y-2.4898
X4.2232Y-2.4898
X4.2732Y-2.4898
X2.4803Y-1.4961
X2.5591Y-1.4961
T3
X3.5138Y-2.4311
X3.5138Y-2.5311
X4.1276Y-1.378
X4.5276Y-1.378
X4.4031Y-2.4898
X4.8031Y-2.4898
X3.0512Y-1.4551
X3.0512Y-1.5551
X3.376Y-1.4567
X3.376Y-1.5551
T4
X3.8764Y-1.378
X3.9764Y-1.378
X3.6764Y-2.4898
X3.7764Y-2.4898
X3.8764Y-2.4898
X3.9764Y-2.4898
T5
X2.4606Y-1.7323
X2.4606Y-2.4409
X2.5394Y-1.7323
X2.5394Y-2.4409
X2.8937Y-1.7323
X2.8937Y-2.4409
X2.9724Y-1.7323
X2.9724Y-2.4409
T6
X3.7106Y-1.5185
X3.7106Y-2.3185
X3.8106Y-1.5185
X3.8106Y-2.3185
X3.9106Y-1.5185
X3.9106Y-2.3185
X4.0106Y-1.5185
X4.0106Y-2.3185
X4.1106Y-1.5185
X4.1106Y-2.3185
X4.2106Y-1.5185
X4.2106Y-2.3185
X4.3106Y-1.5185
X4.3106Y-2.3185
X4.4106Y-1.5185
X4.4106Y-2.3185
X4.5106Y-1.5185
X4.5106Y-2.3185
X4.6106Y-1.5185
X4.6106Y-2.3185
X4.7106Y-1.5185
X4.7106Y-2.3185
X4.8106Y-1.5185
X4.8106Y-2.3185
X4.9106Y-1.5185
X5.0106Y-1.5185
X5.1106Y-1.5185
X5.2106Y-1.5185
T7
X2.4614Y-2.9921
X5.3047Y-2.9921
T8
X3.2579Y-1.7913
X3.2579Y-2.3819
T0
M30
